/* XPM */
static char *mini-icq[] = {
/* width height num_colors chars_per_pixel */
"    14    15      197            2",
/* colors */
".. c #040204",
".# c #048204",
".a c #9ca20c",
".b c #04c204",
".c c #44d244",
".d c #044204",
".e c #dcda04",
".f c #04e204",
".g c #84ee84",
".h c #4c4a04",
".i c #046204",
".j c #042204",
".k c #24e624",
".l c #fcfe84",
".m c #44ea44",
".n c #64ea64",
".o c #04b204",
".p c #34c634",
".q c #049204",
".r c #047204",
".s c #04f204",
".t c #c4fec4",
".u c #041204",
".v c #04d204",
".w c #fcfe44",
".x c #045204",
".y c #043204",
".z c #a4fea4",
".A c #2cf62c",
".B c #44fe44",
".C c #fcfec4",
".D c #ecf20c",
".E c #1caa1c",
".F c #6cf66c",
".G c None s None",
".H c #149214",
".I c #041a04",
".J c #f4f634",
".K c #1c8a1c",
".L c #b4b60c",
".M c #84fe84",
".N c #04aa04",
".O c #34f634",
".P c #e4fee4",
".Q c #74f674",
".R c #048a04",
".S c #646604",
".T c #046a04",
".U c #242604",
".V c #04ba04",
".W c #14fe14",
".X c #14d214",
".Y c #045a04",
".Z c #040a04",
".0 c #044a04",
".1 c #049a04",
".2 c #047a04",
".3 c #243204",
".4 c #54f654",
".5 c #fcfe04",
".6 c #c4c604",
".7 c #94fa94",
".8 c #04ca04",
".9 c #042a04",
"#. c #24de24",
"## c #04fa04",
"#a c #043a04",
"#b c #14ea14",
"#c c #bcbe04",
"#d c #14ae14",
"#e c #34fe34",
"#f c #f4fef4",
"#g c #74fe74",
"#h c #146a14",
"#i c #0c820c",
"#j c #5ce25c",
"#k c #04ea04",
"#l c #3ce63c",
"#m c #fcfe9c",
"#n c #0cb20c",
"#o c #0c720c",
"#p c #d4fed4",
"#q c #0c120c",
"#r c #04da04",
"#s c #fcfe74",
"#t c #b4feb4",
"#u c #2cb62c",
"#v c #0c1a0c",
"#w c #0caa0c",
"#x c #6c7a1c",
"#y c #0c0a04",
"#z c #54fe54",
"#A c #fcfe14",
"#B c #0cc60c",
"#C c #5cc65c",
"#D c #0c420c",
"#E c #0ca60c",
"#F c #5c5e04",
"#G c #142204",
"#H c #44f244",
"#I c #fcfe5c",
"#J c #24fe24",
"#K c #fcfedc",
"#L c #1cbe1c",
"#M c #64fe64",
"#N c #149e14",
"#O c #fcfe24",
"#P c #7cf67c",
"#Q c #0c8e0c",
"#R c #0c6a0c",
"#S c #14ba14",
"#T c #1cda1c",
"#U c #8c9634",
"#V c #349e34",
"#W c #6c6e34",
"#X c #3cda3c",
"#Y c #94f694",
"#Z c #3cee3c",
"#0 c #1cca1c",
"#1 c #4c5214",
"#2 c #4cee4c",
"#3 c #f4f604",
"#4 c #24ae24",
"#5 c #5cea5c",
"#6 c #5cfa5c",
"#7 c #9cfe9c",
"#8 c #0cfe0c",
"#9 c #1cee1c",
"a. c #0cda0c",
"a# c #747614",
"aa c #6cea6c",
"ab c #ccfecc",
"ac c #acfeac",
"ad c #4cfe4c",
"ae c #1c721c",
"af c #ecfeec",
"ag c #1cfe1c",
"ah c #2cde2c",
"ai c #3cfe3c",
"aj c #fcfef4",
"ak c #7cfe7c",
"al c #dcfedc",
"am c #bcfebc",
"an c #5cfe5c",
"ao c #2cfe2c",
"ap c #6cfe6c",
"aq c #fcfe94",
"ar c #fcfe34",
"as c #0c5604",
"at c #040604",
"au c #048604",
"av c #04c604",
"aw c #044604",
"ax c #04e604",
"ay c #04a604",
"az c #046604",
"aA c #042604",
"aB c #04b604",
"aC c #34ca34",
"aD c #049604",
"aE c #047604",
"aF c #041604",
"aG c #045604",
"aH c #043604",
"aI c #1ce61c",
"aJ c #041e04",
"aK c #04ae04",
"aL c #048e04",
"aM c #046e04",
"aN c #04be04",
"aO c #045e04",
"aP c #040e04",
"aQ c #044e04",
"aR c #049e04",
"aS c #047e04",
"aT c #94fe94",
"aU c #04ce04",
"aV c #042e04",
"aW c #04fe04",
"aX c #043e04",
"aY c #0c860c",
"aZ c #04ee04",
"a0 c #0cb60c",
"a1 c #0c960c",
"a2 c #0c760c",
"a3 c #04de04",
"a4 c #0cae0c",
"a5 c #8cfe8c",
"a6 c #7cfa7c",
"a7 c #3cf23c",
"a8 c #fcfe4c",
"a9 c #fcfe0c",
"b. c #bcbe0c",
"b# c #fcfea4",
"ba c #fcfe1c",
"bb c #bcba0c",
"bc c #fcfefc",
/* pixels */
".G.G.G.G.G.G.G.G.G.G.G.G.G.G",
".G.G.G.G.G.G.G.....G.G.G.G.G",
".G.G.G.G.G.GaGal#k.G.G.....G",
".G.G..aP..atab.BaWat.HabaW..",
".G.G#7#faW..bcagaW.yalaWav..",
".G.G#M.zaW.I.zac.N.taWaL...G",
".G...9..aWaW..asatahat...G.G",
"at#EbcaW.r..#c#I.e#baT.s...G",
".G..#g.BaW.Tb#a9.5#5.taWaW..",
".G..ae.qaBaL#Uar.6.0.BaWaW.#",
"at.X#faWaW.9#ZaJaD#z........",
"at#b#faW.Z.camaGaiadaW.Y...G",
".G.....Z.Z#faW..aX#faWaW...G",
".G.G.G.G#V#8a3...I#wal.s...G",
".G.G.G.G#R#Qat.G.G.G.ZaP.G.G"
};
