/* XPM */
static char *image[] = {
"48 48 243 4",
"     c None",
"0000 c #181408",
"1000 c #786038",
"2000 c #b07c40",
"3000 c #c88840",
"4000 c #a87038",
"5000 c #a07038",
"6000 c #d8a850",
"7000 c #d8a040",
"8000 c #d8cc78",
"9000 c #b07838",
":000 c #f8d048",
";000 c #f8f460",
"A000 c #f8f858",
"B000 c #d8c878",
"C000 c #986430",
"D000 c #b88040",
"E000 c #a07440",
"F000 c #987848",
"G000 c #705830",
"H000 c #d89440",
"I000 c #f8bc58",
"J000 c #f8e060",
"K000 c #d8c868",
"L000 c #d09448",
"M000 c #d8a860",
"N000 c #d0a060",
"O000 c #b88850",
"P000 c #e0a050",
"Q000 c #f8b450",
"R000 c #d0c888",
"S000 c #d0a460",
"T000 c #f0b468",
"U100 c #f8f078",
"V100 c #f8fcc8",
"W100 c #f8f868",
"X100 c #b87828",
"Y100 c #f0a850",
"Z100 c #f8d060",
"a100 c #f8e868",
"b100 c #906420",
"c100 c #e09840",
"d100 c #d0c4b0",
"e100 c #b88c48",
"f100 c #f8b860",
"g100 c #f8c858",
"h100 c #f8d858",
"i100 c #f8e040",
"j100 c #f8fcd8",
"k100 c #704820",
"l100 c #e09c48",
"m100 c #c88c40",
"n100 c #483820",
"o100 c #e89428",
"p100 c #f8ac38",
"q100 c #f8fcf8",
"r100 c #c8c078",
"s100 c #a86c20",
"t100 c #c07c20",
"u100 c #f8a840",
"v100 c #f8fc60",
"w100 c #c8bcb0",
"x100 c #d08c38",
"y100 c #f8fca8",
"z100 c #f8dc50",
"0200 c #f8fc98",
"1200 c #f8fcb8",
"2200 c #f8fcb0",
"3200 c #c8bc58",
"4200 c #583c20",
"5200 c #f8d878",
"6200 c #f8ec88",
"7200 c #f8c050",
"8200 c #f8b840",
"9200 c #f8f450",
":200 c #c0bc50",
";200 c #c89448",
"A200 c #684010",
"B200 c #c89450",
"C200 c #e8ac60",
"D200 c #f8c870",
"E200 c #f8c468",
"F200 c #e8a048",
"G200 c #f0a038",
"H200 c #f8d868",
"I200 c #f8c450",
"J200 c #f8fc80",
"K200 c #f8f470",
"L200 c #f8fc78",
"M200 c #c0b850",
"N200 c #d8a058",
"O200 c #f0b868",
"P200 c #c88830",
"Q200 c #d08830",
"R200 c #f8e078",
"S200 c #f8cc58",
"T200 c #f8d058",
"U300 c #f8fc88",
"V300 c #c0ac50",
"W300 c #986018",
"X300 c #987438",
"Y300 c #c89858",
"Z300 c #d09c50",
"a300 c #b07428",
"b300 c #f8b048",
"c300 c #f8c060",
"d300 c #f8b850",
"e300 c #f8a438",
"f300 c #f8c458",
"g300 c #c09048",
"h300 c #402c18",
"i300 c #a88048",
"j300 c #c08c50",
"k300 c #b88c50",
"l300 c #b07c38",
"m300 c #a06820",
"n300 c #d89848",
"o300 c #e8a448",
"p300 c #f8b458",
"q300 c #f0a440",
"r300 c #e89c38",
"s300 c #886838",
"t300 c #a07840",
"u300 c #b08448",
"v300 c #a07c48",
"w300 c #986c28",
"x300 c #e0a458",
"y300 c #d89c48",
"z300 c #d89038",
"0400 c #f0b058",
"1400 c #d08c30",
"2400 c #a87030",
"3400 c #987440",
"4400 c #b88440",
"5400 c #c08838",
"6400 c #d09038",
"7400 c #f0ac58",
"8400 c #c88430",
"9400 c #a06c30",
":400 c #684008",
";400 c #584020",
"A400 c #705430",
"B400 c #907040",
"C400 c #805018",
"D400 c #b88438",
"E400 c #c08440",
"F400 c #c89048",
"G400 c #b88038",
"H400 c #301c08",
"I400 c #603808",
"J400 c #806038",
"K400 c #886438",
"L400 c #986830",
"M400 c #a87c40",
"N400 c #a06c28",
"O400 c #b07830",
"P400 c #b87c38",
"Q400 c #684410",
"R400 c #a07438",
"S400 c #a87438",
"T400 c #906020",
"U500 c #b88848",
"V500 c #a87838",
"W500 c #986c30",
"X500 c #906828",
"Y500 c #b08040",
"Z500 c #905c18",
"a500 c #a07030",
"b500 c #201408",
"c500 c #886430",
"d500 c #805c20",
"e500 c #906430",
"f500 c #885820",
"g500 c #906030",
"h500 c #987038",
"i500 c #986828",
"j500 c #181008",
"k500 c #382c18",
"l500 c #785830",
"m500 c #583810",
"n500 c #483818",
"o500 c #603c10",
"p500 c #906c38",
"q500 c #100c00",
"r500 c #201808",
"s500 c #402810",
"t500 c #684818",
"u500 c #101000",
"v500 c #080400",
"w500 c #282010",
"x500 c #281c08",
"y500 c #684820",
"z500 c #785028",
"0600 c #302008",
"1600 c #382408",
"2600 c #705428",
"3600 c #684c20",
"4600 c #906830",
"5600 c #382810",
"6600 c #000000",
"7600 c #080800",
"8600 c #281808",
"9600 c #885c20",
":600 c #604828",
";600 c #604010",
"A600 c #685028",
"B600 c #806030",
"C600 c #785420",
"D600 c #987040",
"E600 c #885c28",
"F600 c #805420",
"G600 c #805820",
"H600 c #784c18",
"I600 c #805418",
"J600 c #704810",
"K600 c #785020",
"L600 c #805828",
"M600 c #886028",
"N600 c #805c28",
"O600 c #785828",
"P600 c #704c20",
"Q600 c #704c18",
"R600 c #785428",
"S600 c #785c30",
"T600 c #705020",
"U700 c #604018",
"V700 c #604420",
"W700 c #684418",
"X700 c #584428",
"Y700 c #302410",
"Z700 c #503418",
"a700 c #604820",
"b700 c #503008",
"c700 c #584018",
"d700 c #503410",
"e700 c #483010",
"f700 c #583c18",
"g700 c #503c18",
"h700 c #483418",
"i700 c #483018",
"j700 c #402c10",
"k700 c #503818",
"l700 c #403018",
"l700k700j700j700j700l700k700k700i700j700h700g700f700g700k700e700e700e700e700e700d700c700f700d700e700b700k700c700d700k700a700g700e700k700g700Z700k700k700g700g700k700l700e700h700h700l700j700Y700",
"X700W700V700U700V700W700T600S600R600Q600P600O600N600M600L600K600J600J600J600J600K600M600N600I600H600K600G600M600F600E600D600I600K600M600L600C600N600N600B600N600P600W700T600R600A600W700f700e700",
"k700a700V700V700;600V700W700c700Y700h700e700h700f700:600N600C600Q600J600J600J600Q6009600E600I600h700d70086007600660056004600Q600C600N600C600O600L600N600B600T600W700360026003600W700c700k7001600",
"i700V700a700V700c700c700U700l7006600660066006600660066006600660066006600660066006600660066006600660066006600660066000600N600J600G600O600K600O600L600S600z500V700y500T6003600V700f700d700e700x500",
"j700c700y500a700U700c700c700d700x500w500v500v5007600v5007600v5007600v5007600v5007600v5007600v5007600v500u5000600x5002600K600Q600N600K600T600O600O600R600t500V70036003600V700f700d700e700e700x500",
"s500f700U700V700a700V700f700U700;6003600O600r500v500q50076007600q5007600v500q50076007600q5007600v500q500T600F600G600p500Q600C600O600K600O600N600N6003600t500P600T600V700o500k700b700d700n5001600",
"j700m500f700;600V7003600y500V700V700W70026005600q500q500q500q500q500q500q500q500q500q500q500q500q500q5009600G600M6004600H600M600N600G600B600M600O600t500T600l5003600U700f700d700m500f700c700k500",
"j700m500f700f700o500V700T6003600t500t500Q600c700j500j500j500j500j500j500j500j500j500j500j500j500j500r500i5009600h500g500f500e500d500M600e500c500C600K600N600T600t500o500m500f700V700:600:600l700",
"s500m500f700f700f700U700t500R600T600Q600P600f700b500j500b500j500j500b500j500j500b500j500b500j500b500s500a500Z500Y5009600X5004600e500W500h500N600C600M600O600P600;600f700;6003600T6002600A600l700",
"e700m500f700m500f700o500V700P600N600O600K600C600b500r500b500r500b500r500b500r500b500r500b500b500r500e700V500i500U500T400S400i500a500R4004600G600c500M600K600Q400;600t500R600l500S600S600A600l700",
"h700;600o500f700f700o500;600t500K600M600N600G600x5008600x5008600x5008600x5008600x5008600x5008600x500d700P400O400Y500N400V500S400M400M400T400L400p500G600Q600W700H600O600B600K400J400l500A600k500",
"m5003600t500I400f700o500;600Q400Q600G6004600e500j700w500H400w500H400w500H400w500H400w500H400w500H400f700G400F400O400E400O400D400U500a500a500R400g500C400Q600G600K4004600B400K400B600A400y500k500",
";400C6002600Q600V700;600:400W700J600K600d5009400f7000600Y70016000600Y700060016000600Y700060016000600G60084007400O40064005400F4004400S4004400i5009600K600g500p500340034004600J400l500T600V7005600",
"a700N600N600C600T600Q600t500Q400Q600H600I600g500;400560016001600560016005600160056001600560016005600240014000400z3006400y300x300O400F400V500T4009600w300v300u300t300D600s300N600R6003600V7005600",
"X700N600B600B600N600L600O600K600H600K600I6009600W7005600s500k500s500s5005600s5005600s5005600s5005600G400r300q300p300o30004006400n300E400N400m300l300k300j300i30034004600N600O600T600y500c7001600",
"k700R600N600N600B600c500c500c500M600f500I600Z500K600i700h300h300l700h300l700h300l700h300i700h300l700g300f300e300d300c300b300o300n300O400a300F400Z300Y300U500t300W500M600L600K600Q600V700m5000600",
"j700o500J600T600N600M6004600X300a500h500w300W300K600e700i700h700i700i700i700i700i700i700e700i700e700V300U300T200S200R200b300p300Q200P200x300O200N200j300l300h500e500d500C600Q600V700o500m5000600",
"b700;600I400I400;600Q600E600W500R400Y5004400Y500g500h700Z700d700Z700Z700d700Z700d700Z700h700Z700Z700M200L200K200J200I200H200G200F200E200D200C200B200G400R400i5009600C400J600Q400:400o500m500Y700",
"a700B600C600Q600A200o500:400H600M600V5004400;200V500m500k700k700k700k700k700k700k700m500k700k700k700:2009200J200J200U3008200720062005200p300y3005400O400i500f500I600H600J600J600Q400W700;6005600",
"y500c500c500c500c500M600G600C400H600H600W300G400M40042004200f70042004200f70042004200420042004200f7003200220012000200z100J200y1006200c300o300x100a300m300W300f500G600I600G600C600C600T600y500j700",
"V700M600c500e500s3004600h500R400M400V500N400W300I600U700U700U700U700U700U700U700U700U700U700U700U700w1001200U300v10022001200J200S200u100Q200t100s100s100m300w300i500e500e500M600N600O600T600l700",
"f700C600O600L600G600M6004600a500l3004400F400y300F400W700V700V700W700V700V700W700V700V700V700V700V700r100q100U300q1001200L200T200p100o100o1006400x1005400G400l300S400R400h500p5004600c500N600n100",
"3600M600c500M600M600M600e500e500i500S400l300m100l100y500y500y500y500y500y500y500y500k100y500y500k100w100j100q1001200v100i100h100h100g100f100b300C200N200Z300Y300j300M400W500c500L600T600V7005600",
"3600c5004600p500p500h500t300u300e100;200Z300x300C200P600k100P600k100P600k100P600k100P600k100P600k100d100q100U300120012002200y1000200R200d300c1008400a300m300Z500I600C400H600J600Q400Q400o5001600",
"f700R600G600C600G600G600M600b10094002400l300E4006400K600T600A400z500P600A400z500P600A400P600z500T600d100q100q100j1002200U300J200a100Z100d300Y100y300P200D400l300a500w300e500M600N600C6003600j700",
"c700G600G600L600L600E600g500i500a500V500X100E400x100z500z500z500z500z500z500z500z500z500R600z500z500d100q100q100q100y100U300W100h1007200b300F2006400P200l300S400N400i500M600E600G600K6003600j700",
"c700C600C600C600C600I600G6009600T400N400O40054005400L600L600F600L600L600F600L600L600F600L600F600L600d100q100y1001200V100U300J200U100S200p300F2006400g500G600i500w300e500M600G600O600T600t5005600",
"m500Q600K600C600G600M6004600R400u300B200N200T000S000L600E600L600E600L600E600L600E600L600E600L600E600R000U3001200U300L200L200J200U100f300Q0007400P000N600L600e500N400e500M600G600F600T600W700j700",
"V700c5004600p500h5003400i300O000B200N000M000C200L000E600E600E600E600g500E600E600E600g500E600E600E600K0000200U300U300L200z100J000g100I000E200Y100m100E600g500L400t300W500e500M600O600K600y500k500",
"A600D60034003400t300i300i300u300e100j300g300F4004400e500g500e500g500g500g500e500g500g500g500g500g500K00002009200L200L200h1007200u100f100F200H000Y500g500g5009400w300L400X500c500B600O6003600j700",
"G000F000E0003400D6003400E000t300t300V500Y5005400D000C000e500C000C0004600C000e500C0004600C000C000e500B000A000;000:000J000h100Q000u100Q200P400a500C000e500L400V500R400W500M600G600L600C600T600l700",
"A400B400B400p500s300c500s300L400h500V500V5009000V500W500L400W500L400L400L4009400L400L400L400L40094008000:000U100p10070006000E400a500L400L400L400W500L400L4004600L400W500p500M600O600P600a700j700",
"3600K400O6004200g700f700;400V700T600i5009400a500a30094009400940094009400940094009400g500y500y500y500F600g500C600N4002400940094009400940094009400g500f7000600Y700j700V700N600M600B600O6003600h300",
"V700N600T600j5006600660066007600y500M600i500R400D000500040004000400040004000y500q500660066006600660066006600g5004000a50040002400a50040004000e700660066006600660066006600x500K6002600z5003600l700",
";400O600S600x500660066006600x500G600e500W5004400D000S400S400S400S400S400U7006600660066006600660066006600b500S40090004000S400S4009000S400160066006600660066006600660066006600r500T600t500V700k500",
";400R600C600h700660066006600r500M6004600i300u300S4009000900090009000T600660066006600660066006600660066005600900090009000900090009000E6006600660066006600660066006600660066006600c7003600V7001600",
"f700T600P600e700660066006600x500c500t300t30096009000P400P400P400P400q50066006600660016009400l300P400h700z500P400P400P400P400P400P400r5006600660066001600g500C600Y700660066006600q500y500V7005600",
"k7003600Q600l700660066006600h70034004600F600M6009000D000P400D000g500660066006600q500D000P400E400P400e500g500D000P400D000P400D000P400660066006600r500G4002400K600K600q500660066006600f700f7005600",
"k700t500W700l700660066006600:600B600Q600L60046009000E400E400E400F6006600660066005600E400E400E400E400E400E400E400E400E400E400E400E4006600660066005600E400S400Q600Q600r500660066006600f700d7000600",
"e700y5003600e700660066006600k700t500C600M600H6003000300030003000L600660066006600s500300030003000840090003000300030003000300030003000660066006600j50090002000C600Q400v500660066006600f700h7000600",
"Z70036003600n1006600660066008600P600N600P600A2003000300084003000C0006600660066006600900084003000E400k100k100300084003000840030008400s500660066006600q500U700i7007600660066006600q500f700k7000600",
"n500T600A400g700660066006600r500O600t500o500E60030008400300030003000q500660066006600q500k100L600L600q50066009000E4003000E40030003000C0006600660066006600660066006600660066006600d700k700k7000600",
"g700R6001000h300660066006600r50024009400900030003000E4003000E4003000F600660066006600660066006600660066006600q5009000E4003000E40030003000F600660066006600660066006600660066006600x500j700d700w500",
";4001000T6000000660066006600860030003000300030003000E4003000840030003000k700660066006600660066006600660066006600H4003000E4003000840030003000L40086006600660066006600q50066006600H400k700h7000600",
"X70036000600v5006600660066006600f7004000L400g500g500L400k100W700P600A200A200h700v50066006600660066006600w500O600W700k100J600k100E600g500E60096003000E400L600k700;600g700v500c700c700h700e700x500",
"n100f700g700f700X700g700d700e700c700y500y5003600A400P600U700V700W700m500;600Q600Q600c700e700h700n500O600M600B600T600A200U700A200y5003600y500f700f500E400E400K600f700h700k700;400V700k700e700x500",
"j700m500f700c700Z700j700j700h700f700;400c700V700:600c700k700f700k700b700f700U700V700o500V700t500y500P600A400A400t500f700m500f700f700V700U700k700m50090009000H600Z700h700d700n500g700k700h700x500",
"0600i700Y700x500r500b500b500x500w500w5000600Y700w5008600x500H4008600r5000600w5000600w50006000600Y700Y7005600k500Y700w500x500x500x500w5000600x500r500b5008600b500r500r5008600r500x500r500x500r500"};
