/* XPM */
static char *image_name[] = {
"64 64 3 1",
" 	c #000000000000",
".	c #FFFF00000000",
"X	c #FFFFFFFFFFFF",
"                                                                ",
"                                                                ",
"                                                                ",
"                                                                ",
"                                                                ",
"                                                                ",
"                          ......    .......                     ",
"                         ...........       ..                   ",
"                        .............       ..                  ",
"                        ...............     ..                  ",
"                       ..  ............    ....                 ",
"                       .    ...................                 ",
"                       .           ............                 ",
"                       ..          .............                ",
"                      ...       ................                ",
"                       ....  ....................               ",
"                       ..........................               ",
"                       ..........................               ",
"             .......     .........................              ",
"            ........        ......................              ",
"           .........           ...................              ",
"           ..........             ...............               ",
"            ..........              .............   .           ",
"            ............            .............   ...         ",
"             .............          .............  ......       ",
"              ..............         .....................      ",
"               ...............        ....................      ",
"                .................     .....................     ",
"                 ..........................................     ",
"                   ........................................     ",
"                     .....................................      ",
"                   X  ....................................      ",
"                  XXXX  .................................       ",
"                 XXXXXX   ..............................        ",
"                 XXXXXXX    ...........................         ",
"                 XXXXXXXXXX    .......................          ",
"                  XXXXXXXXXX      ..................            ",
"                   XXXXXXXXXX          .........                ",
"                    XXXXXXXXXX                                  ",
"                     XXXXXXXXXXX    XXX  XX    X                ",
"                     XXXXXXXXXXXXXXXXXXXXXXXXXXX                ",
"                     XXXXXXXXXXXXXXXXXXXXXXXXXXX                ",
"                      XXXXXXXXXXXXXXXXXXXXXXXXXX                ",
"                       XXXXXXXXXXXXXXXXXXXXXXXX                 ",
"                       XXXXXXXXXXXXX     XXXXXX                 ",
"                         XXXXXXXXXXXXX  XXXXXXX                 ",
"                          XXXXXXXXXXXXXXXXXXXX                  ",
"                            XXXXXXXXXXXXXXXXX                   ",
"                             XXXXXXXXXXXXXXXX                   ",
"                               XXXXXXXXXXXXX                    ",
"                                XXXXXXXXXXX                     ",
"                                  XXXXXXXX                      ",
"                                   XXXXXX                       ",
"                                                                ",
"                                                                ",
"                                                                ",
"                                                                ",
"                                                                ",
"                                                                ",
"                                                                ",
"                                                                ",
"                                                                ",
"                                                                ",
"                                                                "};
