/* XPM */
static char * ldp_xpm[] = {
"48 48 418 2",
"  	c None",
". 	c #FFFFFF",
"+ 	c #FEFEFE",
"@ 	c #FDFDFD",
"# 	c #FCFCFC",
"$ 	c #FBFBFB",
"% 	c #FAFAFA",
"& 	c #F9F9F9",
"* 	c #F8F8F8",
"= 	c #F7F7F7",
"- 	c #F6F6F6",
"; 	c #F5F5F5",
"> 	c #F4F4F4",
", 	c #F3F3F3",
"' 	c #F2F2F2",
") 	c #F1F1F1",
"! 	c #F0F0F0",
"~ 	c #EFEFEF",
"{ 	c #EEEEEE",
"] 	c #EDEDED",
"^ 	c #ECEEF8",
"/ 	c #C6CCF6",
"( 	c #ACB6F4",
"_ 	c #ACB5F4",
": 	c #ABB4F3",
"< 	c #B0B8F2",
"[ 	c #C7CDF1",
"} 	c #E4E6F0",
"| 	c #D9DCF1",
"1 	c #B5BDF1",
"2 	c #A9B2F1",
"3 	c #A8B1F0",
"4 	c #A7B1EF",
"5 	c #A7B0EF",
"6 	c #A6AFEE",
"7 	c #B7BEED",
"8 	c #D3D6EB",
"9 	c #E4E5EA",
"0 	c #EAEAEA",
"a 	c #EBEBEB",
"b 	c #DFE1EB",
"c 	c #BDC3ED",
"d 	c #A5AEED",
"e 	c #A4AEEC",
"f 	c #B5BCEB",
"g 	c #D1D4E9",
"h 	c #E3E4E9",
"i 	c #ECECEC",
"j 	c #E4E7F6",
"k 	c #6375F3",
"l 	c #3E56F2",
"m 	c #3E55F2",
"n 	c #6173F1",
"o 	c #A0ABEE",
"p 	c #D5D8EC",
"q 	c #CFD3ED",
"r 	c #8F9BEE",
"s 	c #5569F0",
"t 	c #3D55F1",
"u 	c #4359F1",
"v 	c #5F71EE",
"w 	c #7A89EC",
"x 	c #7A88EC",
"y 	c #6F7FED",
"z 	c #6F80ED",
"A 	c #919DEB",
"B 	c #C3C8E7",
"C 	c #DFE0E5",
"D 	c #E5E5E5",
"E 	c #D9DBE5",
"F 	c #A6AFE8",
"G 	c #5E70EE",
"H 	c #3D54F1",
"I 	c #3C54F0",
"J 	c #4C61EE",
"K 	c #6D7DEB",
"L 	c #5D70ED",
"M 	c #6F7FEC",
"N 	c #A1AAE9",
"O 	c #D4D6E6",
"P 	c #E7E7E7",
"Q 	c #EFF0F5",
"R 	c #D4D8F2",
"S 	c #6E7FF2",
"T 	c #1B37F3",
"U 	c #203CF2",
"V 	c #7080EE",
"W 	c #C5CAE9",
"X 	c #DCDDE7",
"Y 	c #E8E8E8",
"Z 	c #E9E9E9",
"` 	c #E3E3E8",
" .	c #B4BBEA",
"..	c #5368EF",
"+.	c #3149F0",
"@.	c #7D8BE9",
"#.	c #B9BFE3",
"$.	c #B8BEE2",
"%.	c #97A1E5",
"&.	c #5064EC",
"*.	c #364EF0",
"=.	c #6274EC",
"-.	c #AEB5E4",
";.	c #DEDEDE",
">.	c #CDCFDF",
",.	c #6B7CE9",
"'.	c #5A6CEA",
").	c #A9B0DF",
"!.	c #5F71E9",
"~.	c #2540F1",
"{.	c #465CEE",
"].	c #A3ACE5",
"^.	c #E1E1E1",
"/.	c #E4E4E4",
"(.	c #D8DBF0",
"_.	c #6C7DF0",
":.	c #314AF1",
"<.	c #95A0E9",
"[.	c #E3E3E3",
"}.	c #E2E2E2",
"|.	c #B1B8E7",
"1.	c #4C62EE",
"2.	c #4B60ED",
"3.	c #ABB2E1",
"4.	c #DBDBDB",
"5.	c #D9D9D9",
"6.	c #D3D3D9",
"7.	c #8D98E1",
"8.	c #344DEE",
"9.	c #203BF2",
"0.	c #6A7AE7",
"a.	c #C2C5DA",
"b.	c #D7D7D7",
"c.	c #CCCED8",
"d.	c #6E7EE6",
"e.	c #203BF1",
"f.	c #7C89E1",
"g.	c #D2D2D2",
"h.	c #8B96DF",
"i.	c #2F48EF",
"j.	c #707FE8",
"k.	c #CCCEDE",
"l.	c #DFDFDF",
"m.	c #B8BFEE",
"n.	c #4E63F0",
"o.	c #E0E0E0",
"p.	c #98A2E6",
"q.	c #364EEF",
"r.	c #6475E8",
"s.	c #D5D5D5",
"t.	c #D3D3D3",
"u.	c #A9AFD9",
"v.	c #4D61E9",
"w.	c #3E55EC",
"x.	c #99A1DA",
"y.	c #CFCFCF",
"z.	c #B1B5D5",
"A.	c #5769E7",
"B.	c #2E47EE",
"C.	c #8691DA",
"D.	c #CBCBCB",
"E.	c #9099D8",
"F.	c #384FEC",
"G.	c #586BE8",
"H.	c #B7BCDB",
"I.	c #9AA5EE",
"J.	c #6072EA",
"K.	c #C0C4DE",
"L.	c #DADADA",
"M.	c #DCDCDC",
"N.	c #8592E5",
"O.	c #7280E4",
"P.	c #CDCDD3",
"Q.	c #D0D0D0",
"R.	c #CECECE",
"S.	c #CDCDCD",
"T.	c #AEB3D2",
"U.	c #5668E6",
"V.	c #243FF0",
"W.	c #7C88DC",
"X.	c #C9C9C9",
"Y.	c #C8C8C8",
"Z.	c #989FD3",
"`.	c #4157E9",
" +	c #445AE6",
".+	c #99A0CF",
"++	c #C4C4C4",
"@+	c #7E89D8",
"#+	c #2943EF",
"$+	c #5C6EE6",
"%+	c #B8BCD6",
"&+	c #D6D6D6",
"*+	c #8895ED",
"=+	c #6F7EE7",
"-+	c #CDCED9",
";+	c #D8D8D8",
">+	c #C8CADA",
",+	c #6979E7",
"'+	c #2A43F0",
")+	c #838FDD",
"!+	c #AAAFCE",
"~+	c #5466E4",
"{+	c #6F7DDB",
"]+	c #C3C3C3",
"^+	c #C2C2C2",
"/+	c #7C88D6",
"(+	c #2942EF",
"_+	c #5567DF",
":+	c #A7ABC5",
"<+	c #BEBEBE",
"[+	c #ACAFC4",
"}+	c #5B6CDF",
"|+	c #243EF0",
"1+	c #7280DE",
"2+	c #C4C5D0",
"3+	c #D9DBEB",
"4+	c #2A44F0",
"5+	c #8793E1",
"6+	c #D4D4D4",
"7+	c #D1D1D1",
"8+	c #B0B5DA",
"9+	c #5366E9",
"0+	c #4258EA",
"a+	c #9AA1D6",
"b+	c #C7C7C7",
"c+	c #C5C5C5",
"d+	c #989FCE",
"e+	c #4459E6",
"f+	c #1F3AF1",
"g+	c #707ED6",
"h+	c #BDBDBD",
"i+	c #B8B9BE",
"j+	c #6776D9",
"k+	c #6170D9",
"l+	c #B0B1BC",
"m+	c #ACAEBE",
"n+	c #737FD3",
"o+	c #3149EB",
"p+	c #4E61E4",
"q+	c #A0A6D0",
"r+	c #DDDDDD",
"s+	c #BBC1EB",
"t+	c #5367EF",
"u+	c #3F55ED",
"v+	c #9BA3DC",
"w+	c #9EA6DA",
"x+	c #4359EB",
"y+	c #5063E6",
"z+	c #A6ABD0",
"A+	c #C6C6C6",
"B+	c #C1C1C1",
"C+	c #C0C0C0",
"D+	c #7F8AD3",
"E+	c #2D46ED",
"F+	c #2C45EC",
"G+	c #7C86CF",
"H+	c #B9B9B9",
"I+	c #A7AABF",
"J+	c #5869DC",
"K+	c #4257E4",
"L+	c #6977D5",
"M+	c #5C6CDA",
"N+	c #3D53E5",
"O+	c #3950E7",
"P+	c #5E6EDC",
"Q+	c #979ECD",
"R+	c #C0C1C6",
"S+	c #CACACA",
"T+	c #A9B1EB",
"U+	c #4158EF",
"V+	c #4E62EA",
"W+	c #A8AFD8",
"X+	c #CCCCCC",
"Y+	c #6272E0",
"Z+	c #B7B9C9",
"`+	c #BFBFBF",
" @	c #B4B6C0",
".@	c #465AE2",
"+@	c #949AC4",
"@@	c #B6B6B6",
"#@	c #8E95C4",
"$@	c #4156E3",
"%@	c #2B44EB",
"&@	c #5163DB",
"*@	c #6674D2",
"=@	c #707DD0",
"-@	c #8890CA",
";@	c #AAADC2",
">@	c #929DEC",
",@	c #2B45F1",
"'@	c #6777E5",
")@	c #C1C3D3",
"!@	c #B7BACF",
"~@	c #C2C3CE",
"{@	c #C7C7CD",
"]@	c #6E7DE0",
"^@	c #7986D9",
"/@	c #949BCA",
"(@	c #4358E5",
"_@	c #233EEF",
":@	c #6976D4",
"<@	c #ADAFB9",
"[@	c #B4B4B4",
"}@	c #7C86CA",
"|@	c #2F48E9",
"1@	c #4458E0",
"2@	c #8F95BF",
"3@	c #B1B1B1",
"4@	c #B3B3B3",
"5@	c #B5B5B5",
"6@	c #B8B8B8",
"7@	c #BCBCBC",
"8@	c #DEE0EA",
"9@	c #7585ED",
"0@	c #7B88E1",
"a@	c #C5C5CB",
"b@	c #8590D9",
"c@	c #818DDB",
"d@	c #C1C2CD",
"e@	c #5F70E3",
"f@	c #324AEC",
"g@	c #8791D5",
"h@	c #B0B2C2",
"i@	c #4B5EE0",
"j@	c #6F7CCF",
"k@	c #233DEF",
"l@	c #5969D7",
"m@	c #A5A7B7",
"n@	c #B7B7B7",
"o@	c #BBBBBB",
"p@	c #CDD1EB",
"q@	c #6476EE",
"r@	c #8A95DE",
"s@	c #C5C6CB",
"t@	c #98A0D4",
"u@	c #5467E4",
"v@	c #9EA5D4",
"w@	c #465BE8",
"x@	c #455AE7",
"y@	c #7581D5",
"z@	c #364DEA",
"A@	c #475BE3",
"B@	c #8D95C9",
"C@	c #B4B5BA",
"D@	c #A9ABBB",
"E@	c #5B6BD9",
"F@	c #E7E8F3",
"G@	c #BFC6EF",
"H@	c #8895EE",
"I@	c #4259F0",
"J@	c #939CDB",
"K@	c #8C96DA",
"L@	c #7784DD",
"M@	c #9099D7",
"N@	c #A3AAD3",
"O@	c #6474E2",
"P@	c #3C52EA",
"Q@	c #7481DA",
"R@	c #8A94D2",
"S@	c #7C87D6",
"T@	c #5F6FDD",
"U@	c #959CCA",
"V@	c #9FA3C3",
"W@	c #6D7BD3",
"X@	c #2741ED",
"Y@	c #606FD7",
"Z@	c #999EC2",
"`@	c #B0B2BC",
" #	c #E1E3F3",
".#	c #A8B2F0",
"+#	c #7786EE",
"@#	c #6475ED",
"##	c #5C6FEC",
"$#	c #5A6DEA",
"%#	c #6878E6",
"&#	c #7583E1",
"*#	c #6F7EE1",
"=#	c #6071E4",
"-#	c #5669E6",
";#	c #7885DE",
">#	c #9FA6D5",
",#	c #8B96D9",
"'#	c #6475E2",
")#	c #5568E5",
"!#	c #5A6BE3",
"~#	c #6777DF",
"{#	c #707EDC",
"]#	c #6171DF",
"^#	c #AEB2C6",
"/#	c #9EA4C8",
"(#	c #6C7AD8",
"_#	c #5667DF",
":#	c #5164E1",
"<#	c #8B94CD",
"[#	c #B1B3C3",
"}#	c #EDEEF3",
"|#	c #C8CCEC",
"1#	c #C4C8E8",
"2#	c #BFC4E3",
"3#	c #BBC0DF",
"4#	c #B8BCDC",
"5#	c #B4B9D8",
"6#	c #B2B7D6",
"7#	c #B0B5D4",
"8#	c #BABDD2",
"9#	c #BFC1D1",
"0#	c #B5B9D3",
"a#	c #B0B4D4",
"b#	c #AFB4D3",
"c#	c #ADB2D1",
"d#	c #ACB1D0",
"e#	c #ABB0CF",
"f#	c #ABAFCF",
"g#	c #B8BACA",
"h#	c #BFBFC5",
"i#	c #B0B3C8",
"j#	c #A6ABCA",
"k#	c #E6E6E6",
"                                                                                                ",
"                                                                                                ",
"                                                                                                ",
"                                                                                                ",
"                                                                                                ",
"                                                                                                ",
"                                                                                                ",
"                                                                                                ",
". . . . . . . + + + + + + + + + + + + + + + + @ @ @ @ + + + + + + + + + + @ @ @ @ + + + + + + . ",
". . . . . + + + @ @ @ @ @ @ @ @ @ @ @ @ # # # # # # # # # # # # # # # # # # # # # # # # @ @ + + ",
". . . + + + @ # # # # # # # # # # $ $ $ $ % % % % % % % % % % % % % % % & & & & & & % % $ $ # @ ",
". . + + @ # $ $ % % & & & & % % % & & & * * = = = = = = = * * * * * = = = - - - - = * * & % $ $ ",
". + + @ # $ % & * = = = = = = = = = - - ; ; > > > > > > > ; ; ; ; > > , , ' ' ' ' , > ; - = & & ",
"+ + @ # % & * - ; > > > > > > > > > , ' ) ) ! ! ~ ~ ~ ~ ! ! ! ! ! ~ ~ { { ] ] ] ] { ! ) ' > - = ",
"+ @ # % ^ / ( _ : < [ } ! ! ) ) | 1 2 3 4 5 5 6 7 8 9 0 0 a a b c 6 d d e e e f g h 0 i { ! , > ",
"@ # $ & j _ k l m n o p i i ] ] q r s t u v w x y z A B C D D E F G H I J K K L M N O P 0 i ~ ) ",
"@ $ % = Q R S T U V W X P Y Y Z `  ...T +.@.#.$.%.&.*.=.-.;.;.;.>.,.T T '.).).!.~.{.].^./.Y a ] ",
"# % * - , (._.T :.<.[.}.[.[./././.|.1.T 2.3.4.5.6.7.8.9.0.a.b.b.c.d.T e.f.g.g.h.i.9.j.k.l.[.Y 0 ",
"$ & = > ! m.n.T J -.;.;.;.l.l.o.l.p.q.T r.a.s.t.g.u.v.T w.x.y.y.z.A.T B.C.D.D.E.F.T G.H.4.l./.P ",
"$ & ; ' { I.:.T J.K.L.5.5.L.4.M.4.N.~.T O.P.Q.R.S.T.U.T V.W.X.Y.Z.`.T  +.+++++@+#+T $+%+&+4.^./.",
"% * > ! i *+U T =+-+&+s.s.&+b.;+>+,+T '+)+S.D.X.Y.!+~+T T {+]+^+/+(+T _+:+<+[+}+T |+1+2+t.5.l.}.",
"& - , { 3+V T 4+5+6+g.7+g.t.6+6+8+9+T 0+a+X.b+c+]+d+e+T f+g+h+i+j+T T k+l+m+n+o+f+p+q+D.7+b.r+o.",
"& ; ) ] s+t+T u+v+7+y.y.y.Q.Q.7+w+x+T y+z+A+]+B+C+D+E+T F+G+H+I+J+T T K+L+M+N+O+P+Q+R+S+7+b.r+o.",
"* ; ! i T+U+T V+W+y.S.X+S.S.R.R.)+'+T Y+Z+]+B+`+ @j+f+T .@+@@@#@$@T %@&@*@*@=@-@;@C+c+D.7+b.;.^.",
"= > ! 0 >@,@T '@)@S.D.S+!@T.~@{@]@T V.^@]+B+`+<+/@(@T _@:@<@[@}@|@T 1@2@3@4@5@6@7@B+b+S.t.5.l.[.",
"= , ~ 8@9@T 9.0@y.X+S+a@b@c@d@!@e@T f@g@^+C+<+h@j+_@f+i@+@@@[@j@k@T l@m@4@5@n@o@`+++S+Q.&+M.}.D ",
"- , { p@q@T i.r@y.X+s@t@u@c@D.v@w@T x@.+^+C+[+y@z@f+A@B@C@n@D@E@T k@j@[@5@n@o@`+]+Y.R.6+L.o.D Y ",
"- F@G@H@I@T 4+'@J@K@L@w@w@M@N@O@#+T P@Q@R@S@}+z@z@T@U@i+o@V@W@O+T X@Y@Z@`@7@`+]+Y.S.t.5.;./.Z a ",
"-  #.#+#@###$#%#&#*#=#-#;#>#,#'#)#)#!#~#{#]#]#Q@R@^#B+C+`+/#(#_#:#_+j+<#[#B+c+X.R.t.5.;.[.Y i { ",
"= }#(.|#1#2#3#4#5#6#z.7#8#9#0#a#b#T.c#d#e#f#g#A+c+c+c+c+++h#i#j#j#j#j#i#R+Y.X+Q.s.5.;.[.P i ~ ) ",
"= > ! i P }.;.L.&+6+g.7+7+7+7+7+Q.y.R.S.X+X+D.D.D.D.D.S+S+S+X.X.Y.Y.X.S+X+y.g.&+4.l.[.Y i ~ , > ",
"* ; ) { Z D ^.r+L.;+b.&+s.s.s.s.6+6+t.g.7+7+Q.7+7+7+7+7+7+Q.Q.Q.y.y.Q.g.6+&+5.r+^.D Z ] ! , - = ",
"& - , ! i Y D }.l.r+M.4.L.L.L.5.5.5.;+b.b.&+b.b.b.b.b.;+b.b.b.b.b.b.;+5.4.r+o.[.P 0 { ) , - * & ",
"% = ; ' ~ i Z k#/.}.^.o.o.o.o.l.l.;.;.r+r+r+r+r+;.;.;.;.l.l.l.l.l.l.l.o.}./.k#Z i ~ ' > - & % $ ",
"$ & = ; ' ~ ] 0 Z P k#D D D D D /././.[.[.[.[.[././.D D k#k#k#k#k#k#k#P Y 0 i { ! , ; = & % # # ",
"# % & = ; , ! ~ ] i i a 0 0 0 0 0 Z Z Z Z Z Z Z 0 0 a a i i i i i i i ] { ~ ) ' > - * & $ # @ @ ",
"@ # % & = - > , ) ) ! ! ~ ~ ~ ~ ~ ~ { { { { { ~ ~ ! ! ! ) ) ) ) ) ) ) ) ' , ; - = & % $ # @ + + ",
"+ @ # $ & * = - ; ; > > > > > > , , , , , , , > > > ; ; ; ; ; ; ; ; ; ; - = * & % $ # @ + + . . ",
"+ + @ # $ % & & * * = = = = = = = - - - - = = = = * * * * * * * * * & & & & % $ $ # @ + + . . . ",
". + @ @ # $ $ % % & & & & & & & & * * * * & & & & & % % % % % % % % $ $ $ $ $ # # @ + + . . .   ",
"                                                                                                ",
"                                                                                                ",
"                                                                                                ",
"                                                                                                ",
"                                                                                                ",
"                                                                                                ",
"                                                                                                ",
"                                                                                                "};
