/* XPM */
static char *magick[] = {
/* columns rows colors chars-per-pixel */
"64 64 21 1",
"  c Gray98",
". c Gray91",
"X c #d8d8d8",
"o c #c8c8c8",
"O c Gray72",
"+ c Gray66",
"@ c #989898",
"# c Gray53",
"$ c Gray100",
"% c #9b9b9b",
"& c Black",
"* c #777777",
"= c #676767",
"- c Gray64",
"; c #939393",
": c #565656",
"> c Gray28",
", c Gray22",
"< c #272727",
"1 c Gray9",
"2 c Gray2",
/* pixels */
"                          . ........XXXXXXXoXoooooOoOOOOO+O++++@",
"                       . . . .....X..XXXXoXooooooOoOOOO+O+++++@@",
"                         . .......XXXXXXXoXoXoooOoOOOOOO+O++@@+@",
"                      .. .. ....XX.XXXXXoXoooooOoOOOOOO++++@+@@@",
"                    .  . ........XXXXXoXoooooOoOOOOOO++O+++@@@@#",
"                     . . .....XXXXXXXXXoXoooooOoOOOO+O++@+@@@@#@",
"      $$$$$$$$$$$$$$$$$$$$$$$$$$$$$$$$$$$$$$$$$$$$$$$$$$$%@@@@##",
"      $%%%%%%%%%%%%%%%%%%%%%%%%%%%%%%%%%%%%%%%%%%%%%%%%%%&@@@###",
"      $%%%%%%%%%%%%%%%%%%%%%%%%%%%%%%%%%%%%%%%%%%%%%%%%%%&@##@##",
"      $%%%%%%%%%%%%%%%%%%%%%%%%%%%%%%%%%%%%%%%%%%%%%%%%%%&#@###*",
"      $%%%%%%%%%%%%%%%%%%%%%%%%%%%%%%%%%%%%%%%%%%%%%%%%%%&@####*",
"      $%%%%%%%%%%%%%%%%%%%%%%%%%%%%%%%%%%%%%%%%%%%%%%%%%%&###***",
"      $%%%%%%%%%%%%%%%%%%%%%%%%%%%%%%%%%%%%%%%%%%%%%%%%%%&##*#**",
"      $%%%%%%%%%%%%%%%%%%%%%%%%%%%%%%%%%%%%%%%%%%%%%%%%%%&*#****",
"      $%%%%%%%%%%%%%%%%%%%%%%%%%%%%%%%%%%%%%%%%%%%%%%%%%%&#****=",
"      $%%%%%%%%%%%%%%%%%%%%%%%%%%%%%%%%%%%%%%%%%%%%%%%%%%&*****=",
"      $%%%%%%%%%%%%%%%%%%%%%%%%-;;%%%%%%%%%%%%%%%%%%%%%%%&#**===",
"      $%%%%%%%%%%%%%%%%%%%%%%%%%%%%%%%%%%%%%%%%%%%%%%%%%%&*=*===",
"      $%%%%%%%%%%%%%%%%%%%%%%%%%%%%%%%%%%%%%%%%%%%%%%%%%%&*=====",
"      $%%%%%%%&&&&&&&&&&%%%%%%%%&&&&%%%%%%%&&&&&&&&&%%%%%&=*===:",
"    . $%%%%%%%&&&&&&&&&&%%%%%%%&&&&&%%%%%%%&&&&&&&&%%%%%%&===:=:",
"     .$%%%%%%%%%&&&&&&%%%%%%%%%&&&&&&%%%%%%%%%&&&%%%%%%%%&====::",
"  .  .$%%%%%%%%%%&&&&&%%%%%%%%%&&&&&&%%%%%%%%%&&&%%%%%%%%&=:::::",
"   . .$%%%%%%%%%%&&&&&%%%%%%%%&&&&&&&%%%%%%%%%&&&%%%%%%%%&===:::",
" . . .$%%%%%%%%%%&&&&&%%%%%%%%&&&&&&&&%%%%%%%&&&%%%%%%%%%&::::>:",
".  .. $%%%%%%%%%%%&&&&&%%%%%%%&&&&&&&&%%%%%%%&&&%%%%%%%%%&::::>>",
" .. ..$%%%%%%%%%%%&&&&&%%%%%%%&&&&&&&&%%%%%%%&&&%%%%%%%%%&::>:>>",
". ....$%%%%%%%%%%%&&&&&%%%%%%&&&%%&&&&&%%%%%%&&&%%%%%%%%%&::>>>>",
". ....$%%%%%%%%%%%&&&&&&%%%%%&&&%%&&&&&%%%%%&&&%%%%%%%%%%&>:>>>,",
"......$%%%%%%%%%%%%&&&&&%%%%%&&&%%&&&&&%%%%%&&&%%%%%%%%%%&>>>>>,",
"......$%%%%%%%%%%%%&&&&&%%%%&&&%%%%&&&&%%%%%&&&%%%%%%%%%%&>>>,,,",
"...X.X$%%%%%%%%%%%%&&&&&%%%%&&&%%%%&&&&&%%%%&&&%%%%%%%%%%&>>,>,,",
"....X.$%%%%%%%%%%%%&&&&&&%%%&&&%%%%&&&&&%%%&&&%%%%%%%%%%%&>>,,,,",
"...XXX$%%%%%%%%%%%%%&&&&&%%%&&%%%%%&&&&&%%%&&&%%%%%%%%%%%&,,,,,<",
".XX.XX$%%%%%%%%%%%%%&&&&&%%&&&%%%%%%&&&&&%%&&&%%%%%%%%%%%&,>,<,<",
"X.XXXX$%%%%%%%%%%%%%&&&&&%%&&&%%%%%%&&&&&%%&&&%%%%%%%%%%%&,,,,<<",
"X.XXXX$%%%%%%%%%%%%%%&&&&&%&&&%%%%%%&&&&&%&&&%%%%%%%%%%%%&,,<<,<",
"XXXXXX$%%%%%%%%%%%%%%&&&&&&&&%%%%%%%%&&&&&&&&%%%%%%%%%%%%&<,<<<<",
"XXXoXo$%%%%%%%%%%%%%%&&&&&&&&%%%%%%%%&&&&&&&&%%%%%%%%%%%%&<,<<<1",
"XXXXoo$%%%%%%%%%%%%%%&&&&&&&&%%%%%%%%&&&&&&&&%%%%%%%%%%%%&<<<<1<",
"XooXoX$%%%%%%%%%%%%%%%&&&&&&%%%%%%%%%%&&&&&&%%%%%%%%%%%%%&<<<<11",
"XXoooo$%%%%%%%%%%%%%%%&&&&&&%%%%%%%%%%&&&&&&%%%%%%%%%%%%%&<<1111",
"oXoooo$%%%%%%%%%%%%%%%&&&&&&%%%%%%%%%%&&&&&&%%%%%%%%%%%%%&<<1<11",
"Xooooo$%%%%%%%%%%%%%%%&&&&&&%%%%%%%%%%%&&&&&%%%%%%%%%%%%%&<11111",
"ooooOo$%%%%%%%%%%%%%%%%&&&&%%%%%%%%%%%%&&&&%%%%%%%%%%%%%%&111121",
"oooooO$%%%%%%%%%%%%%%%%&&&&%%%%%%%%%%%%&&&&%%%%%%%%%%%%%%&111122",
"oooOOo$%%%%%%%%%%%%%%%%%%%%%%%%%%%%%%%%%%%%%%%%%%%%%%%%%%&112122",
"ooOoOO$%%%%%%%%%%%%%%%%%%%%%%%%%%%%%%%%%%%%%%%%%%%%%%%%%%&112122",
"oOOOOO$%%%%%%%%%%%%%%%%%%%%%%%%%%%%%%%%%%%%%%%%%%%%%%%%%%&212222",
"oOoOOO$%%%%%%%%%%%%%%%%%%%%%%%%%%%%%%%%%%%%%%%%%%%%%%%%%%&122222",
"OOOOO+$%%%%%%%%%%%%%%%%%%%%%%%%%%%%%%%%%%%%%%%%%%%%%%%%%%&122222",
"oOOOOO$%%%%%%%%%%%%%%%%%%%%%%%%%%%%%%%%%%%%%%%%%%%%%%%%%%&222222",
"OOO+++$%%%%%%%%%%%%%%%%%%%%%%%%%%%%%%%%%%%%%%%%%%%%%%%%%%&222222",
"OOOOO+$%%%%%%%%%%%%%%%%%%%%%%%%%%%%%%%%%%%%%%%%%%%%%%%%%%&222222",
"O+++++$%%%%%%%%%%%%%%%%%%%%%%%%%%%%%%%%%%%%%%%%%%%%%%%%%%&222222",
"OO+O++$%%%%%%%%%%%%%%%%%%%%%%%%%%%%%%%%%%%%%%%%%%%%%%%%%%&222222",
"+O++++$%%%%%%%%%%%%%%%%%%%%%%%%%%%%%%%%%%%%%%%%%%%%%%%%%%&222222",
"++++@+%&&&&&&&&&&&&&&&&&&&&&&&&&&&&&&&&&&&&&&&&&&&&&&&&&&&222222",
"++++@@@@@####*#**=*=====::::>:>>,>,,,,<<<<<<11112222222222222222",
"++@+@@@#@####*****=====:::::>>>>>,,,,<,<<<1<11111212222222222222",
"++@@@@@####*#***=====:::::>:>>>,,,,,<<<<<<1111221222222222222222",
"@+@@@#@####****=*====:=:::>>>>,>,,,<,<<<<11111122222222222222222",
"@@@@@####*#**=*====:::::>:>>>,,,,<,<<<<1111122122222222222222222",
"@@@#@####*****===:==::::>>>>,>,,,,<<<1<<111112222222222222222222"
};
